<svg width="14" height="15" viewBox="0 0 14 15" fill="none" xmlns="http://www.w3.org/2000/svg">
<path d="M13.125 5.43752H11.375C11.375 5.32149 11.3289 5.21021 11.2469 5.12816C11.1648 5.04611 11.0535 5.00002 10.9375 5.00002H7.4375C7.32147 5.00002 7.21019 5.04611 7.12814 5.12816C7.04609 5.21021 7 5.32149 7 5.43752H3.5V3.03127C3.5 2.85722 3.56914 2.6903 3.69221 2.56723C3.81528 2.44416 3.9822 2.37502 4.15625 2.37502C4.31006 2.37439 4.45954 2.4259 4.58031 2.52115C4.70108 2.61639 4.78601 2.74975 4.82125 2.89947C4.84528 3.01222 4.91284 3.11093 5.00925 3.17414C5.10566 3.23735 5.22311 3.25995 5.33609 3.23704C5.44907 3.21412 5.54845 3.14754 5.61261 3.05177C5.67677 2.956 5.70054 2.83877 5.67875 2.72557C5.60447 2.37743 5.41253 2.06551 5.13523 1.8423C4.85794 1.61909 4.51222 1.49822 4.15625 1.50002C3.75014 1.50002 3.36066 1.66135 3.07349 1.94851C2.78633 2.23568 2.625 2.62516 2.625 3.03127V5.43752H0.875C0.758968 5.43752 0.647688 5.48361 0.565641 5.56566C0.483594 5.64771 0.4375 5.75899 0.4375 5.87502V8.06252C0.438369 8.87448 0.761303 9.65293 1.33544 10.2271C1.90959 10.8012 2.68804 11.1242 3.5 11.125V12C3.5 12.1161 3.54609 12.2273 3.62814 12.3094C3.71019 12.3914 3.82147 12.4375 3.9375 12.4375C4.05353 12.4375 4.16481 12.3914 4.24686 12.3094C4.32891 12.2273 4.375 12.1161 4.375 12V11.125H9.625V12C9.625 12.1161 9.67109 12.2273 9.75314 12.3094C9.83519 12.3914 9.94647 12.4375 10.0625 12.4375C10.1785 12.4375 10.2898 12.3914 10.3719 12.3094C10.4539 12.2273 10.5 12.1161 10.5 12V11.125C11.312 11.1242 12.0904 10.8012 12.6646 10.2271C13.2387 9.65293 13.5616 8.87448 13.5625 8.06252V5.87502C13.5625 5.75899 13.5164 5.64771 13.4344 5.56566C13.3523 5.48361 13.241 5.43752 13.125 5.43752ZM10.5 5.87502V7.62502H7.875V5.87502H10.5ZM12.6875 8.06252C12.6875 8.34979 12.6309 8.63424 12.521 8.89964C12.4111 9.16504 12.2499 9.40619 12.0468 9.60932C11.8437 9.81244 11.6025 9.97357 11.3371 10.0835C11.0717 10.1934 10.7873 10.25 10.5 10.25H3.5C2.91984 10.25 2.36344 10.0196 1.9532 9.60932C1.54297 9.19908 1.3125 8.64268 1.3125 8.06252V6.31252H7V8.06252C7 8.17855 7.04609 8.28983 7.12814 8.37188C7.21019 8.45393 7.32147 8.50002 7.4375 8.50002H10.9375C11.0535 8.50002 11.1648 8.45393 11.2469 8.37188C11.3289 8.28983 11.375 8.17855 11.375 8.06252V6.31252H12.6875V8.06252Z" fill="#959595"/>
</svg>
