<svg width="14" height="15" viewBox="0 0 14 15" fill="none" xmlns="http://www.w3.org/2000/svg">
<path d="M11.8125 4.125H1.75V2.8125C1.75 2.69647 1.70391 2.58519 1.62186 2.50314C1.53981 2.42109 1.42853 2.375 1.3125 2.375C1.19647 2.375 1.08519 2.42109 1.00314 2.50314C0.921094 2.58519 0.875 2.69647 0.875 2.8125V11.5625C0.875 11.6785 0.921094 11.7898 1.00314 11.8719C1.08519 11.9539 1.19647 12 1.3125 12C1.42853 12 1.53981 11.9539 1.62186 11.8719C1.70391 11.7898 1.75 11.6785 1.75 11.5625V9.8125H13.125V11.5625C13.125 11.6785 13.1711 11.7898 13.2531 11.8719C13.3352 11.9539 13.4465 12 13.5625 12C13.6785 12 13.7898 11.9539 13.8719 11.8719C13.9539 11.7898 14 11.6785 14 11.5625V6.3125C14 5.73234 13.7695 5.17594 13.3593 4.7657C12.9491 4.35547 12.3927 4.125 11.8125 4.125ZM1.75 5H5.6875V8.9375H1.75V5ZM6.5625 8.9375V5H11.8125C12.1606 5 12.4944 5.13828 12.7406 5.38442C12.9867 5.63056 13.125 5.9644 13.125 6.3125V8.9375H6.5625Z" fill="#AAAAAA"/>
<path d="M11.8125 4.125H1.75V2.8125C1.75 2.69647 1.70391 2.58519 1.62186 2.50314C1.53981 2.42109 1.42853 2.375 1.3125 2.375C1.19647 2.375 1.08519 2.42109 1.00314 2.50314C0.921094 2.58519 0.875 2.69647 0.875 2.8125V11.5625C0.875 11.6785 0.921094 11.7898 1.00314 11.8719C1.08519 11.9539 1.19647 12 1.3125 12C1.42853 12 1.53981 11.9539 1.62186 11.8719C1.70391 11.7898 1.75 11.6785 1.75 11.5625V9.8125H13.125V11.5625C13.125 11.6785 13.1711 11.7898 13.2531 11.8719C13.3352 11.9539 13.4465 12 13.5625 12C13.6785 12 13.7898 11.9539 13.8719 11.8719C13.9539 11.7898 14 11.6785 14 11.5625V6.3125C14 5.73234 13.7695 5.17594 13.3593 4.7657C12.9491 4.35547 12.3927 4.125 11.8125 4.125ZM1.75 5H5.6875V8.9375H1.75V5ZM6.5625 8.9375V5H11.8125C12.1606 5 12.4944 5.13828 12.7406 5.38442C12.9867 5.63056 13.125 5.9644 13.125 6.3125V8.9375H6.5625Z" fill="black" fill-opacity="0.2"/>
<path d="M11.8125 4.125H1.75V2.8125C1.75 2.69647 1.70391 2.58519 1.62186 2.50314C1.53981 2.42109 1.42853 2.375 1.3125 2.375C1.19647 2.375 1.08519 2.42109 1.00314 2.50314C0.921094 2.58519 0.875 2.69647 0.875 2.8125V11.5625C0.875 11.6785 0.921094 11.7898 1.00314 11.8719C1.08519 11.9539 1.19647 12 1.3125 12C1.42853 12 1.53981 11.9539 1.62186 11.8719C1.70391 11.7898 1.75 11.6785 1.75 11.5625V9.8125H13.125V11.5625C13.125 11.6785 13.1711 11.7898 13.2531 11.8719C13.3352 11.9539 13.4465 12 13.5625 12C13.6785 12 13.7898 11.9539 13.8719 11.8719C13.9539 11.7898 14 11.6785 14 11.5625V6.3125C14 5.73234 13.7695 5.17594 13.3593 4.7657C12.9491 4.35547 12.3927 4.125 11.8125 4.125ZM1.75 5H5.6875V8.9375H1.75V5ZM6.5625 8.9375V5H11.8125C12.1606 5 12.4944 5.13828 12.7406 5.38442C12.9867 5.63056 13.125 5.9644 13.125 6.3125V8.9375H6.5625Z" fill="black" fill-opacity="0.2"/>
</svg>
