<svg width="18" height="14" viewBox="0 0 18 14" fill="none" xmlns="http://www.w3.org/2000/svg">
<path d="M15.1874 4.43125V3.25C15.1874 2.50408 14.8911 1.78871 14.3636 1.26126C13.8362 0.733816 13.1208 0.4375 12.3749 0.4375H5.62489C4.87897 0.4375 4.1636 0.733816 3.63615 1.26126C3.10871 1.78871 2.81239 2.50408 2.81239 3.25V4.43125C2.1766 4.56035 1.605 4.90529 1.19443 5.4076C0.783857 5.90992 0.55957 6.53874 0.55957 7.1875C0.55957 7.83626 0.783857 8.46508 1.19443 8.9674C1.605 9.46972 2.1766 9.81465 2.81239 9.94375V12.25C2.81239 12.5484 2.93092 12.8345 3.14189 13.0455C3.35287 13.2565 3.63902 13.375 3.93739 13.375H14.0624C14.3608 13.375 14.6469 13.2565 14.8579 13.0455C15.0689 12.8345 15.1874 12.5484 15.1874 12.25V9.94375C15.8232 9.81465 16.3948 9.46972 16.8053 8.9674C17.2159 8.46508 17.4402 7.83626 17.4402 7.1875C17.4402 6.53874 17.2159 5.90992 16.8053 5.4076C16.3948 4.90529 15.8232 4.56035 15.1874 4.43125ZM5.62489 1.5625H12.3749C12.8224 1.5625 13.2517 1.74029 13.5681 2.05676C13.8846 2.37322 14.0624 2.80245 14.0624 3.25V4.43125C13.4275 4.56178 12.8571 4.9072 12.4473 5.40927C12.0374 5.91135 11.8132 6.53938 11.8124 7.1875H6.18739C6.1866 6.53938 5.96237 5.91135 5.55252 5.40927C5.14266 4.9072 4.57223 4.56178 3.93739 4.43125V3.25C3.93739 2.80245 4.11518 2.37322 4.43165 2.05676C4.74811 1.74029 5.17734 1.5625 5.62489 1.5625ZM14.6523 8.875H14.6249C14.4757 8.875 14.3326 8.93426 14.2271 9.03975C14.1217 9.14524 14.0624 9.28832 14.0624 9.4375V12.25H3.93739V9.4375C3.93739 9.28832 3.87813 9.14524 3.77264 9.03975C3.66715 8.93426 3.52407 8.875 3.37489 8.875H3.34747C3.01493 8.8696 2.69141 8.76605 2.41753 8.57737C2.14365 8.38869 1.93164 8.12329 1.80811 7.8145C1.68458 7.50572 1.65505 7.16731 1.72323 6.8418C1.7914 6.51628 1.95425 6.21817 2.1913 5.9849C2.42836 5.75164 2.72906 5.59362 3.05563 5.5307C3.3822 5.46778 3.72009 5.50276 4.02684 5.63125C4.3336 5.75974 4.59555 5.97601 4.77979 6.25289C4.96403 6.52977 5.06235 6.85492 5.06239 7.1875V10C5.06239 10.1492 5.12165 10.2923 5.22714 10.3977C5.33263 10.5032 5.47571 10.5625 5.62489 10.5625C5.77407 10.5625 5.91715 10.5032 6.02264 10.3977C6.12813 10.2923 6.18739 10.1492 6.18739 10V8.3125H11.8124V10C11.8124 10.1492 11.8717 10.2923 11.9771 10.3977C12.0826 10.5032 12.2257 10.5625 12.3749 10.5625C12.5241 10.5625 12.6671 10.5032 12.7726 10.3977C12.8781 10.2923 12.9374 10.1492 12.9374 10V7.1875C12.9374 6.85492 13.0357 6.52977 13.22 6.25289C13.4042 5.97601 13.6662 5.75974 13.9729 5.63125C14.2797 5.50276 14.6176 5.46778 14.9441 5.5307C15.2707 5.59362 15.5714 5.75164 15.8085 5.9849C16.0455 6.21817 16.2084 6.51628 16.2766 6.8418C16.3447 7.16731 16.3152 7.50572 16.1917 7.8145C16.0681 8.12329 15.8561 8.38869 15.5822 8.57737C15.3084 8.76605 14.9848 8.8696 14.6523 8.875Z" fill="#959595"/>
</svg>
