<svg width="12" height="13" viewBox="0 0 12 13" fill="none" xmlns="http://www.w3.org/2000/svg">
<path d="M10.78 6.05777L10.1 5.26777C9.97 5.11777 9.865 4.83777 9.865 4.63777V3.78777C9.865 3.25777 9.43 2.82277 8.9 2.82277H8.05C7.855 2.82277 7.57 2.71777 7.42 2.58777L6.63 1.90777C6.285 1.61277 5.72 1.61277 5.37 1.90777L4.585 2.59277C4.435 2.71777 4.15 2.82277 3.955 2.82277H3.09C2.56 2.82277 2.125 3.25777 2.125 3.78777V4.64277C2.125 4.83777 2.02 5.11777 1.895 5.26777L1.22 6.06277C0.930002 6.40777 0.930002 6.96777 1.22 7.31277L1.895 8.10777C2.02 8.25777 2.125 8.53777 2.125 8.73277V9.58777C2.125 10.1178 2.56 10.5528 3.09 10.5528H3.955C4.15 10.5528 4.435 10.6578 4.585 10.7878L5.375 11.4678C5.72 11.7628 6.285 11.7628 6.635 11.4678L7.425 10.7878C7.575 10.6578 7.855 10.5528 8.055 10.5528H8.905C9.435 10.5528 9.87 10.1178 9.87 9.58777V8.73777C9.87 8.54277 9.975 8.25777 10.105 8.10777L10.785 7.31777C11.075 6.97277 11.075 6.40277 10.78 6.05777ZM8.08 5.74277L5.665 8.15777C5.595 8.22777 5.5 8.26777 5.4 8.26777C5.3 8.26777 5.205 8.22777 5.135 8.15777L3.925 6.94777C3.78 6.80277 3.78 6.56277 3.925 6.41777C4.07 6.27277 4.31 6.27277 4.455 6.41777L5.4 7.36277L7.55 5.21277C7.695 5.06777 7.935 5.06777 8.08 5.21277C8.225 5.35777 8.225 5.59777 8.08 5.74277Z" fill="#2AAE09"/>
</svg>
