<svg width="14" height="15" viewBox="0 0 14 15" fill="none" xmlns="http://www.w3.org/2000/svg">
<path d="M13.75 9.3125V13.8125C13.75 13.9617 13.6907 14.1048 13.5852 14.2102C13.4798 14.3157 13.3367 14.375 13.1875 14.375H0.8125C0.663316 14.375 0.520242 14.3157 0.414753 14.2102C0.309263 14.1048 0.25 13.9617 0.25 13.8125V9.3125C0.25 9.16332 0.309263 9.02024 0.414753 8.91475C0.520242 8.80926 0.663316 8.75 0.8125 8.75C0.961684 8.75 1.10476 8.80926 1.21025 8.91475C1.31574 9.02024 1.375 9.16332 1.375 9.3125V13.25H12.625V9.3125C12.625 9.16332 12.6843 9.02024 12.7898 8.91475C12.8952 8.80926 13.0383 8.75 13.1875 8.75C13.3367 8.75 13.4798 8.80926 13.5852 8.91475C13.6907 9.02024 13.75 9.16332 13.75 9.3125ZM6.60203 9.71047C6.65427 9.76277 6.71631 9.80426 6.7846 9.83257C6.85288 9.86087 6.92608 9.87544 7 9.87544C7.07392 9.87544 7.14712 9.86087 7.2154 9.83257C7.28369 9.80426 7.34573 9.76277 7.39797 9.71047L10.2105 6.89797C10.2627 6.84571 10.3042 6.78366 10.3325 6.71538C10.3608 6.6471 10.3753 6.57391 10.3753 6.5C10.3753 6.42609 10.3608 6.3529 10.3325 6.28462C10.3042 6.21634 10.2627 6.15429 10.2105 6.10203C10.1582 6.04977 10.0962 6.00831 10.0279 5.98003C9.9596 5.95174 9.88641 5.93719 9.8125 5.93719C9.73859 5.93719 9.6654 5.95174 9.59712 5.98003C9.52884 6.00831 9.46679 6.04977 9.41453 6.10203L7.5625 7.95477V1.4375C7.5625 1.28832 7.50324 1.14524 7.39775 1.03975C7.29226 0.934263 7.14918 0.875 7 0.875C6.85082 0.875 6.70774 0.934263 6.60225 1.03975C6.49676 1.14524 6.4375 1.28832 6.4375 1.4375V7.95477L4.58547 6.10203C4.47992 5.99648 4.33677 5.93719 4.1875 5.93719C4.03823 5.93719 3.89508 5.99648 3.78953 6.10203C3.68398 6.20758 3.62469 6.35073 3.62469 6.5C3.62469 6.64927 3.68398 6.79242 3.78953 6.89797L6.60203 9.71047Z" fill="#1F1F1F"/>
</svg>
