<svg width="100" height="101" viewBox="0 0 100 101" fill="none" xmlns="http://www.w3.org/2000/svg">
<rect y="0.1875" width="100" height="100" rx="50" fill="#FEEFE6"/>
<g clip-path="url(#clip0_62_433)">
<path d="M50.0022 77.9956C65.465 77.9956 78 65.4606 78 49.9978C78 34.535 65.465 22 50.0022 22C34.5394 22 22.0044 34.535 22.0044 49.9978C22.0044 65.4606 34.5394 77.9956 50.0022 77.9956Z" fill="#F4D44E"/>
<path d="M40.8575 71.4342C23.2302 61.2571 22.1597 36.3352 38.4628 24.573C33.3016 26.8951 28.7946 30.8005 25.7487 36.0762C18.0316 49.4428 22.6113 66.5343 35.9777 74.2515C45.8144 79.9306 57.668 78.9496 66.3186 72.7084C58.4032 76.2697 48.9481 76.1053 40.8575 71.4342Z" fill="#E8C842"/>
<path d="M41.138 54.3379C42.5485 54.3379 43.692 52.88 43.692 51.0817C43.692 49.2833 42.5485 47.8254 41.138 47.8254C39.7274 47.8254 38.584 49.2833 38.584 51.0817C38.584 52.88 39.7274 54.3379 41.138 54.3379Z" fill="#656566"/>
<path d="M43.0914 52.9911C41.681 52.9911 40.5374 51.5333 40.5374 49.7349C40.5374 49.023 40.7171 48.3651 41.021 47.8291C39.6649 47.9071 38.584 49.3332 38.584 51.0816C38.584 52.88 39.7274 54.3379 41.138 54.3379C41.9901 54.3379 42.7443 53.8053 43.2083 52.9874C43.1695 52.9896 43.1305 52.9911 43.0914 52.9911Z" fill="#4F4F51"/>
<path d="M43.9177 64.4924C43.4927 64.2994 43.3047 63.7983 43.4978 63.3733C46.0537 57.7488 54.0136 57.8622 56.5074 63.3745C56.6997 63.7999 56.511 64.3007 56.0856 64.493C55.6604 64.6855 55.1596 64.4966 54.9672 64.0713C53.0589 59.8528 46.9838 59.7868 45.0366 64.0725C44.8952 64.3841 44.3422 64.6853 43.9177 64.4924Z" fill="#656566"/>
<path d="M62.827 45.257C61.3853 43.8784 59.5675 43.1403 57.7061 43.1779C57.2404 43.1913 56.8533 42.8168 56.8439 42.3502C56.8344 41.8834 57.205 41.4974 57.6717 41.488C59.9819 41.4387 62.2283 42.3455 63.9954 44.0355C64.3328 44.3581 64.3447 44.8931 64.022 45.2304C63.6987 45.5683 63.1639 45.5793 62.827 45.257Z" fill="#656566"/>
<path d="M35.9825 45.2303C35.6598 44.8929 35.6717 44.3578 36.0091 44.0354C37.7761 42.3454 40.022 41.4408 42.3327 41.4878C42.7994 41.4972 43.1701 41.8834 43.1606 42.35C43.151 42.8166 42.7653 43.1916 42.2984 43.1777C40.4385 43.1399 38.6191 43.8782 37.1775 45.2569C36.8404 45.5792 36.3053 45.5679 35.9825 45.2303Z" fill="#656566"/>
<path d="M36.5367 69.4034C39.6199 69.4034 41.6876 66.2368 40.4477 63.414L37.3081 57.3891C37.0197 56.8357 36.2278 56.8363 35.9402 57.39L32.7293 63.5724C31.5221 66.3207 33.5352 69.4034 36.5367 69.4034Z" fill="#9CD7F2"/>
<path d="M35.696 64.4985L36.6142 57.5926C36.6463 57.3519 36.7792 57.165 36.9559 57.0502C36.6037 56.8838 36.1444 56.9963 35.9397 57.3902L32.7288 63.5726C31.5216 66.3208 33.5346 69.4036 36.5363 69.4036C37.3609 69.4036 38.1115 69.1755 38.7469 68.7897C36.9405 68.2899 35.5561 66.584 35.696 64.4985Z" fill="#71C5DB"/>
<path d="M58.8665 54.3379C60.277 54.3379 61.4205 52.88 61.4205 51.0817C61.4205 49.2833 60.277 47.8254 58.8665 47.8254C57.456 47.8254 56.3125 49.2833 56.3125 51.0817C56.3125 52.88 57.456 54.3379 58.8665 54.3379Z" fill="#656566"/>
<path d="M60.8194 52.9911C59.409 52.9911 58.2654 51.5333 58.2654 49.7349C58.2654 49.023 58.4451 48.3651 58.7491 47.8291C57.3929 47.9071 56.312 49.3332 56.312 51.0816C56.312 52.88 57.4554 54.3379 58.866 54.3379C59.7181 54.3379 60.4723 53.8053 60.9363 52.9874C60.8976 52.9896 60.8586 52.9911 60.8194 52.9911Z" fill="#4F4F51"/>
</g>
<defs>
<clipPath id="clip0_62_433">
<rect width="56" height="56" fill="white" transform="translate(22 22)"/>
</clipPath>
</defs>
</svg>
