<svg width="18" height="19" viewBox="0 0 18 19" fill="none" xmlns="http://www.w3.org/2000/svg">
<g clip-path="url(#clip0_83_874)">
<path d="M6.1875 3.5625V1.3125C6.1875 1.16332 6.24677 1.02024 6.35225 0.914752C6.45774 0.809263 6.60082 0.75 6.75 0.75C6.89919 0.75 7.04226 0.809263 7.14775 0.914752C7.25324 1.02024 7.3125 1.16332 7.3125 1.3125V3.5625C7.3125 3.71168 7.25324 3.85476 7.14775 3.96025C7.04226 4.06574 6.89919 4.125 6.75 4.125C6.60082 4.125 6.45774 4.06574 6.35225 3.96025C6.24677 3.85476 6.1875 3.71168 6.1875 3.5625ZM9 4.125C9.14919 4.125 9.29226 4.06574 9.39775 3.96025C9.50324 3.85476 9.5625 3.71168 9.5625 3.5625V1.3125C9.5625 1.16332 9.50324 1.02024 9.39775 0.914752C9.29226 0.809263 9.14919 0.75 9 0.75C8.85082 0.75 8.70774 0.809263 8.60225 0.914752C8.49677 1.02024 8.4375 1.16332 8.4375 1.3125V3.5625C8.4375 3.71168 8.49677 3.85476 8.60225 3.96025C8.70774 4.06574 8.85082 4.125 9 4.125ZM11.25 4.125C11.3992 4.125 11.5423 4.06574 11.6477 3.96025C11.7532 3.85476 11.8125 3.71168 11.8125 3.5625V1.3125C11.8125 1.16332 11.7532 1.02024 11.6477 0.914752C11.5423 0.809263 11.3992 0.75 11.25 0.75C11.1008 0.75 10.9577 0.809263 10.8523 0.914752C10.7468 1.02024 10.6875 1.16332 10.6875 1.3125V3.5625C10.6875 3.71168 10.7468 3.85476 10.8523 3.96025C10.9577 4.06574 11.1008 4.125 11.25 4.125ZM17.775 7.3875L15.75 8.90625V13.125C15.75 13.7217 15.5129 14.294 15.091 14.716C14.669 15.1379 14.0967 15.375 13.5 15.375H4.5C3.90326 15.375 3.33097 15.1379 2.90901 14.716C2.48706 14.294 2.25 13.7217 2.25 13.125V8.90625L0.225002 7.3875C0.105655 7.29799 0.0267535 7.16473 0.00565571 7.01705C-0.0154421 6.86936 0.0229917 6.71935 0.112502 6.6C0.202013 6.48065 0.335268 6.40175 0.482953 6.38065C0.630638 6.35956 0.780655 6.39799 0.900002 6.4875L2.25 7.5V5.8125C2.25 5.66332 2.30927 5.52024 2.41475 5.41475C2.52024 5.30926 2.66332 5.25 2.8125 5.25H15.1875C15.3367 5.25 15.4798 5.30926 15.5852 5.41475C15.6907 5.52024 15.75 5.66332 15.75 5.8125V7.5L17.1 6.4875C17.2193 6.39799 17.3694 6.35956 17.5171 6.38065C17.6647 6.40175 17.798 6.48065 17.8875 6.6C17.977 6.71935 18.0154 6.86936 17.9943 7.01705C17.9733 7.16473 17.8944 7.29799 17.775 7.3875ZM14.625 6.375H3.375V13.125C3.375 13.4234 3.49353 13.7095 3.70451 13.9205C3.91549 14.1315 4.20163 14.25 4.5 14.25H13.5C13.7984 14.25 14.0845 14.1315 14.2955 13.9205C14.5065 13.7095 14.625 13.4234 14.625 13.125V6.375Z" fill="#959595"/>
</g>
<defs>
<clipPath id="clip0_83_874">
<rect width="18" height="18" fill="white" transform="translate(0 0.1875)"/>
</clipPath>
</defs>
</svg>
