<svg width="18" height="19" viewBox="0 0 18 19" fill="none" xmlns="http://www.w3.org/2000/svg">
<path d="M4.10225 9.89775C3.88258 9.67808 3.88258 9.32192 4.10225 9.10225L5.60225 7.60225C5.82192 7.38258 6.17808 7.38258 6.39775 7.60225C6.61742 7.82192 6.61742 8.17808 6.39775 8.39775L5.858 8.9375L11.25 8.9375C11.5607 8.9375 11.8125 9.18934 11.8125 9.5C11.8125 9.81066 11.5607 10.0625 11.25 10.0625L5.858 10.0625L6.39775 10.6023C6.61742 10.8219 6.61742 11.1781 6.39775 11.3977C6.17808 11.6174 5.82192 11.6174 5.60225 11.3977L4.10225 9.89775Z" fill="#F04438"/>
<path fill-rule="evenodd" clip-rule="evenodd" d="M10.459 1.4375H11.2913C12.317 1.43749 13.1438 1.43747 13.794 1.52489C14.4691 1.61566 15.0375 1.80983 15.4889 2.26126C15.9403 2.7127 16.1345 3.28111 16.2253 3.95619C16.3127 4.60641 16.3127 5.43316 16.3127 6.45885V12.5412C16.3127 13.5668 16.3127 14.3936 16.2253 15.0438C16.1345 15.7189 15.9403 16.2873 15.4889 16.7387C15.0375 17.1902 14.4691 17.3843 13.794 17.4751C13.1437 17.5625 12.317 17.5625 11.2913 17.5625H10.459C9.43332 17.5625 8.60658 17.5625 7.95635 17.4751C7.28127 17.3843 6.71286 17.1902 6.26143 16.7387C5.96222 16.4395 5.77551 16.0883 5.65728 15.6874C4.94376 15.6864 4.3493 15.6786 3.86767 15.6138C3.2947 15.5368 2.79795 15.3701 2.40143 14.9736C2.00491 14.5771 1.8382 14.0803 1.76116 13.5073C1.68747 12.9592 1.68748 12.2649 1.6875 11.4153V7.58473C1.68748 6.73512 1.68747 6.04081 1.76116 5.49266C1.8382 4.9197 2.00491 4.42295 2.40143 4.02643C2.79795 3.62991 3.2947 3.4632 3.86767 3.38616C4.3493 3.32141 4.94376 3.31356 5.65728 3.31263C5.77551 2.91171 5.96222 2.56047 6.26143 2.26126C6.71286 1.80983 7.28127 1.61566 7.95635 1.52489C8.60657 1.43747 9.43332 1.43749 10.459 1.4375ZM5.43898 13.2531C5.44167 13.7365 5.44965 14.172 5.47713 14.5618C4.85127 14.5594 4.386 14.5484 4.01757 14.4989C3.56936 14.4386 3.34958 14.3307 3.19692 14.1781C3.04427 14.0254 2.93639 13.8056 2.87613 13.3574C2.8137 12.893 2.8125 12.2748 2.8125 11.375V7.625C2.8125 6.72522 2.8137 6.10696 2.87613 5.64257C2.93639 5.19435 3.04427 4.97458 3.19692 4.82192C3.34958 4.66927 3.56936 4.56139 4.01757 4.50113C4.386 4.4516 4.85127 4.44061 5.47713 4.43818C5.44965 4.82805 5.44167 5.26347 5.43898 5.74687C5.43725 6.05753 5.68768 6.31076 5.99834 6.31249C6.30899 6.31422 6.56223 6.06379 6.56396 5.75313C6.56852 4.93301 6.58982 4.3517 6.67086 3.91051C6.74895 3.4854 6.87433 3.23935 7.05692 3.05676C7.26449 2.84919 7.55592 2.71385 8.10625 2.63986C8.67277 2.5637 9.4236 2.5625 10.5002 2.5625H11.2502C12.3267 2.5625 13.0776 2.5637 13.6441 2.63986C14.1944 2.71385 14.4858 2.84919 14.6934 3.05676C14.901 3.26433 15.0363 3.55576 15.1103 4.10609C15.1865 4.6726 15.1877 5.42344 15.1877 6.5V12.5C15.1877 13.5766 15.1865 14.3274 15.1103 14.8939C15.0363 15.4442 14.901 15.7357 14.6934 15.9432C14.4858 16.1508 14.1944 16.2862 13.6441 16.3601C13.0776 16.4363 12.3267 16.4375 11.2502 16.4375H10.5002C9.4236 16.4375 8.67277 16.4363 8.10625 16.3601C7.55592 16.2862 7.26449 16.1508 7.05692 15.9432C6.87433 15.7607 6.74895 15.5146 6.67086 15.0895C6.58982 14.6483 6.56852 14.067 6.56396 13.2469C6.56223 12.9362 6.30899 12.6858 5.99834 12.6875C5.68768 12.6892 5.43725 12.9425 5.43898 13.2531Z" fill="#F04438"/>
</svg>
