<svg width="20" height="20" viewBox="0 0 20 20" fill="none" xmlns="http://www.w3.org/2000/svg">
<path d="M19.3461 3.74145C19.3372 3.58855 19.2724 3.44425 19.1641 3.33595C19.0558 3.22765 18.9115 3.16288 18.7586 3.15395C14.7149 2.91958 11.468 4.14927 10.0727 6.45239C9.15082 7.97505 9.15239 9.82427 10.0602 11.5883C9.54348 12.2035 9.16584 12.923 8.95317 13.6977L7.68208 12.4219C8.29301 11.1461 8.26958 9.81645 7.60395 8.71177C6.5727 7.00942 4.19223 6.09692 1.23676 6.27036C1.08386 6.27929 0.93956 6.34405 0.831258 6.45236C0.722955 6.56066 0.658192 6.70496 0.649262 6.85786C0.475044 9.81333 1.38832 12.1938 3.09067 13.225C3.65244 13.5683 4.29797 13.7499 4.95629 13.75C5.59528 13.7422 6.22432 13.5908 6.79692 13.3071L8.75004 15.2602V17.5C8.75004 17.6658 8.81589 17.8248 8.9331 17.942C9.05031 18.0592 9.20928 18.125 9.37504 18.125C9.5408 18.125 9.69978 18.0592 9.81699 17.942C9.9342 17.8248 10 17.6658 10 17.5V15.1961C9.99726 14.2018 10.3356 13.2367 10.9586 12.4618C11.7625 12.8819 12.654 13.1067 13.561 13.118C14.4378 13.1208 15.2984 12.8813 16.0477 12.4258C18.3508 11.0321 19.5836 7.7852 19.3461 3.74145ZM3.7352 12.1563C2.53676 11.4305 1.85864 9.71255 1.87504 7.50005C4.08754 7.4813 5.80551 8.16177 6.53129 9.3602C6.9102 9.9852 6.97192 10.7141 6.72348 11.4649L4.81645 9.55786C4.69829 9.4456 4.54094 9.38394 4.37797 9.38602C4.21499 9.38811 4.05928 9.45378 3.94403 9.56903C3.82878 9.68428 3.76311 9.83999 3.76102 10.003C3.75893 10.1659 3.82059 10.3233 3.93286 10.4415L5.83989 12.3485C5.08911 12.5969 4.36098 12.5352 3.7352 12.1563ZM15.4 11.3579C14.3532 11.9915 13.1227 12.0399 11.8727 11.5141L16.0672 7.3188C16.1795 7.20063 16.2412 7.04329 16.2391 6.88031C16.237 6.71734 16.1713 6.56162 16.0561 6.44637C15.9408 6.33112 15.7851 6.26545 15.6221 6.26337C15.4591 6.26128 15.3018 6.32294 15.1836 6.4352L10.9883 10.625C10.4602 9.37505 10.5079 8.1438 11.1446 7.0977C12.2336 5.30083 14.8165 4.29927 18.1235 4.37661C18.1985 7.68286 17.1985 10.2688 15.4 11.3579Z" fill="#1F1F1F"/>
</svg>
