<svg width="14" height="15" viewBox="0 0 14 15" fill="none" xmlns="http://www.w3.org/2000/svg">
<g clip-path="url(#clip0_58_1809)">
<path d="M11.247 12.3095L9.93454 13.622C9.85245 13.7041 9.7411 13.7502 9.62501 13.7502C9.50891 13.7502 9.39757 13.7041 9.31548 13.622C9.23338 13.5399 9.18726 13.4286 9.18726 13.3125C9.18726 13.1964 9.23338 13.0851 9.31548 13.003L9.88149 12.4375H4.37501C4.02691 12.4375 3.69307 12.2992 3.44693 12.0531C3.20079 11.8069 3.06251 11.4731 3.06251 11.125V5.875C3.06251 5.75897 3.1086 5.64769 3.19065 5.56564C3.2727 5.48359 3.38398 5.4375 3.50001 5.4375C3.61604 5.4375 3.72732 5.48359 3.80937 5.56564C3.89141 5.64769 3.93751 5.75897 3.93751 5.875V11.125C3.93751 11.241 3.9836 11.3523 4.06565 11.4344C4.1477 11.5164 4.25898 11.5625 4.37501 11.5625H9.88149L9.31548 10.997C9.23338 10.9149 9.18726 10.8036 9.18726 10.6875C9.18726 10.5714 9.23338 10.4601 9.31548 10.378C9.39757 10.2959 9.50891 10.2498 9.62501 10.2498C9.7411 10.2498 9.85245 10.2959 9.93454 10.378L11.247 11.6905C11.2877 11.7311 11.32 11.7794 11.342 11.8325C11.364 11.8856 11.3754 11.9425 11.3754 12C11.3754 12.0575 11.364 12.1144 11.342 12.1675C11.32 12.2206 11.2877 12.2689 11.247 12.3095ZM4.37501 4.125C4.46159 4.12507 4.54624 4.09945 4.61825 4.05138C4.69026 4.00331 4.74639 3.93496 4.77953 3.85497C4.81267 3.77498 4.82134 3.68696 4.80443 3.60205C4.78752 3.51714 4.7458 3.43915 4.68454 3.37797L4.11852 2.8125H9.62501C9.74104 2.8125 9.85232 2.85859 9.93437 2.94064C10.0164 3.02269 10.0625 3.13397 10.0625 3.25V8.5C10.0625 8.61603 10.1086 8.72731 10.1906 8.80936C10.2727 8.89141 10.384 8.9375 10.5 8.9375C10.616 8.9375 10.7273 8.89141 10.8094 8.80936C10.8914 8.72731 10.9375 8.61603 10.9375 8.5V3.25C10.9375 2.9019 10.7992 2.56806 10.5531 2.32192C10.3069 2.07578 9.9731 1.9375 9.62501 1.9375H4.11852L4.68454 1.37203C4.76663 1.28994 4.81275 1.1786 4.81275 1.0625C4.81275 0.946402 4.76663 0.835061 4.68454 0.752968C4.60245 0.670875 4.49111 0.624756 4.37501 0.624756C4.25891 0.624756 4.14757 0.670875 4.06548 0.752968L2.75298 2.06547C2.7123 2.1061 2.68003 2.15435 2.65801 2.20746C2.636 2.26057 2.62466 2.3175 2.62466 2.375C2.62466 2.43249 2.636 2.48942 2.65801 2.54254C2.68003 2.59565 2.7123 2.6439 2.75298 2.68453L4.06548 3.99703C4.10614 4.03765 4.1544 4.06985 4.20751 4.09181C4.26062 4.11377 4.31754 4.12504 4.37501 4.125Z" fill="#959595"/>
</g>
<defs>
<clipPath id="clip0_58_1809">
<rect width="14" height="14" fill="white" transform="translate(0 0.1875)"/>
</clipPath>
</defs>
</svg>
