<svg width="100" height="100" viewBox="0 0 100 100" fill="none" xmlns="http://www.w3.org/2000/svg">
<rect width="100" height="100" rx="50" fill="#FEEFE6"/>
<g clip-path="url(#clip0_54_2195)">
<path d="M58.6696 68.5885L30.7299 73.1653C29.8154 73.3152 28.8845 73.0154 28.2286 72.3599C27.5732 71.7045 27.2738 70.7736 27.4237 69.8586L32.015 41.8318L58.6696 68.5885Z" fill="#EB4042"/>
<path d="M32.0147 41.8318L30.7559 49.5204C33.349 53.5945 36.4037 57.3556 39.8594 60.7289C43.2499 64.1644 47.0068 67.2176 51.0636 69.8338L58.6693 68.5866L32.0147 41.8318Z" fill="#FFC119"/>
<path d="M49.3572 51.2304C41.863 43.7362 34.2691 39.18 32.3955 41.0536C30.522 42.9271 35.0786 50.5211 42.5724 58.0153C50.0665 65.5095 57.6605 70.0657 59.5341 68.1921C61.4076 66.3186 56.8514 58.7246 49.3572 51.2304Z" fill="#CCDCE5"/>
<path d="M30.2697 77.9998C28.0162 78.0016 25.8761 77.0126 24.4167 75.2956C22.9568 73.579 22.3258 71.3072 22.6898 69.0832L23.5129 64.0623L25.4071 64.3733L24.5821 69.399C24.2846 71.228 24.8843 73.0884 26.1928 74.3998C27.5102 75.6999 29.366 76.2977 31.1941 76.011L45.81 73.6122L46.1206 75.5055L31.5047 77.899C31.0966 77.9665 30.6834 78.0002 30.2697 77.9998Z" fill="#CCDCE5"/>
<path d="M47.7305 73.2974L49.6495 72.983L49.9596 74.8772L48.0406 75.1916L47.7305 73.2974Z" fill="#CCDCE5"/>
<path d="M32.5332 60.3798H34.4522V62.2988H32.5332V60.3798Z" fill="#FFC119"/>
<path d="M30.6143 67.0963H32.5332V69.0153H30.6143V67.0963Z" fill="#FFC119"/>
<path d="M38.29 67.0963H40.209V69.0153H38.29V67.0963Z" fill="#FFC119"/>
<path d="M46.2461 52.9845L65.436 33.7946L66.7928 35.1518L47.6033 54.3413L46.2461 52.9845Z" fill="#88BF40"/>
<path d="M50.4813 61.0582L49.125 59.7014L55.6733 53.1527C60.8638 47.9335 67.9275 45.0077 75.2881 45.0279H77.6288V46.9469H75.2881C68.4363 46.9281 61.8617 49.6516 57.0301 54.5095L50.4813 61.0582Z" fill="#2FBADB"/>
<path d="M40.8866 51.4633L39.5303 50.1065L44.4233 45.2129C50.3447 39.3239 53.6641 31.3106 53.6416 22.9595H55.5606C55.5845 31.8194 52.0632 40.3208 45.7811 46.5688L40.8866 51.4633Z" fill="#2FBADB"/>
<path d="M75.0317 63.9367C70.104 59.0198 62.1258 59.0198 57.1981 63.9367L55.8418 62.5799C61.5154 56.9063 70.7144 56.9063 76.388 62.5799L75.0317 63.9367Z" fill="#88BF40"/>
<path d="M38.0087 44.7468L36.6523 43.39C41.5688 38.4623 41.5688 30.4846 36.6523 25.5569L38.0087 24.2001C43.6827 29.8741 43.6827 39.0727 38.0087 44.7468Z" fill="#88BF40"/>
<path d="M60.3584 22H64.1964V25.838H60.3584V22Z" fill="#EB4042"/>
<path d="M22.9375 27.757H26.7755V31.595H22.9375V27.757Z" fill="#EB4042"/>
<path d="M71.0762 34.473L73.7902 31.7594L76.5043 34.473L73.7902 37.187L71.0762 34.473Z" fill="#EB4042"/>
<path d="M68.3633 71.7289L71.0773 69.0148L73.7909 71.7289L71.0773 74.4424L68.3633 71.7289Z" fill="#EB4042"/>
<path d="M32.5322 31.595H34.4512V33.5139H32.5322V31.595Z" fill="#FFC119"/>
<path d="M45.9658 23.919H47.8848V25.838H45.9658V23.919Z" fill="#FFC119"/>
<path d="M57.4795 34.4734H59.3985V36.3924H57.4795V34.4734Z" fill="#FFC119"/>
<path d="M75.71 22.9595H77.629V24.8785H75.71V22.9595Z" fill="#FFC119"/>
<path d="M66.1152 42.1494H68.0342V44.0684H66.1152V42.1494Z" fill="#FFC119"/>
<path d="M72.8311 53.6633H74.75V55.5823H72.8311V53.6633Z" fill="#FFC119"/>
<path d="M59.3984 74.7722H61.3174V76.6912H59.3984V74.7722Z" fill="#FFC119"/>
<path d="M24.8564 39.2709H26.7754V41.1899H24.8564V39.2709Z" fill="#FFC119"/>
</g>
<defs>
<clipPath id="clip0_54_2195">
<rect width="56" height="56" fill="white" transform="translate(22 22)"/>
</clipPath>
</defs>
</svg>
